<?xml version="1.0" standalone="no"?>
<!DOCTYPE svg PUBLIC "-//W3C//DTD SVG 20010904//EN"
 "http://www.w3.org/TR/2001/REC-SVG-20010904/DTD/svg10.dtd">
<svg version="1.0" xmlns="http://www.w3.org/2000/svg"
 width="505.000000pt" height="505.000000pt" viewBox="0 0 505.000000 505.000000"
 preserveAspectRatio="xMidYMid meet">
<metadata>
Created by potrace 1.11, written by Peter Selinger 2001-2013
</metadata>
<g transform="translate(0.000000,505.000000) scale(0.100000,-0.100000)"
fill="#000000" stroke="none">
<path d="M774 4995 c-2 -11 -3 -168 -2 -348 l3 -328 664 0 c466 1 668 -2 677
-10 11 -9 13 -84 13 -360 0 -324 -1 -349 -17 -349 -21 0 -168 -52 -241 -85
-29 -14 -60 -25 -67 -25 -8 0 -14 -4 -14 -10 0 -5 -9 -10 -19 -10 -11 0 -23
-5 -26 -11 -4 -6 -14 -8 -22 -5 -8 3 -12 2 -9 -2 2 -4 -46 -38 -107 -75 -112
-68 -148 -93 -217 -154 -20 -18 -40 -30 -44 -26 -3 3 -6 2 -6 -3 0 -5 -45 -55
-100 -112 -104 -107 -156 -173 -205 -257 -15 -27 -31 -52 -34 -55 -18 -15
-130 -241 -135 -274 -5 -32 -51 -164 -56 -161 -3 2 -5 -16 -6 -38 0 -23 -9
-76 -19 -117 -14 -60 -17 -118 -17 -295 0 -121 5 -258 11 -305 17 -119 41
-240 56 -275 8 -16 17 -48 21 -70 10 -57 80 -225 141 -340 21 -39 109 -172
140 -210 13 -16 38 -48 56 -70 61 -75 216 -220 291 -270 32 -22 75 -51 95 -64
124 -84 315 -169 491 -217 93 -26 341 -53 503 -55 84 -1 158 0 163 3 5 3 50 9
99 13 345 26 768 195 989 397 10 10 24 15 29 11 6 -3 7 -1 4 4 -4 6 14 28 40
49 60 49 293 283 293 294 0 5 4 10 9 12 4 2 11 13 15 25 6 18 -6 32 -69 85
-42 34 -103 88 -134 118 -51 48 -89 79 -124 101 -5 4 -6 12 -2 19 5 8 4 11 -2
7 -9 -6 -73 42 -126 95 -33 33 -42 30 -84 -25 -42 -56 -176 -192 -238 -242
-28 -22 -52 -42 -55 -45 -19 -20 -92 -71 -123 -86 -20 -10 -37 -22 -37 -26 0
-5 -4 -6 -10 -3 -5 3 -10 2 -10 -4 0 -5 -15 -13 -32 -16 -18 -4 -40 -13 -48
-19 -24 -20 -169 -65 -272 -85 -128 -24 -316 -27 -442 -6 -54 8 -103 18 -109
22 -6 4 -24 8 -40 10 -15 2 -54 15 -85 29 -31 14 -73 32 -92 41 -19 8 -42 19
-50 24 -8 4 -30 16 -48 25 -21 11 -31 22 -28 31 4 10 1 13 -12 9 -11 -4 -33 8
-62 32 -77 64 -180 166 -180 180 0 6 -4 12 -8 12 -5 0 -19 19 -33 41 -13 23
-32 53 -41 68 -16 25 -38 68 -79 156 -26 57 -66 199 -77 275 -14 95 -14 346
-1 410 6 30 15 73 19 95 9 49 53 166 82 219 11 22 44 73 72 114 28 41 56 82
61 92 21 36 151 161 204 197 31 21 58 40 61 43 33 34 144 85 162 74 4 -3 8
-460 8 -1016 0 -556 2 -1013 4 -1015 2 -2 148 -4 324 -3 250 0 321 -2 325 -12
4 -10 6 -10 6 0 1 6 10 12 20 12 11 0 23 4 26 10 3 5 6 184 5 398 0 324 2 391
14 401 10 9 152 11 555 9 430 -2 542 0 546 10 7 18 7 615 0 643 l-6 24 -527
-3 c-290 -1 -537 0 -550 3 l-23 6 3 312 3 312 550 5 550 5 0 340 0 340 -555 0
-555 0 -2 315 c-1 217 1 318 9 327 9 11 136 13 686 13 371 -1 685 -5 698 -10
16 -6 26 -5 31 3 4 7 8 166 8 355 1 302 -1 342 -15 342 -3407 6 -3481 6 -3486
-15z"/>
</g>
</svg>
